# xmcd
#
# Track frame offsets:
#	150
#	19880
#	42990
#	62487
#	82190
#	101495
#	121860
#	140642
#	156232
#	177240
#	195327
#	210840
#	231285
#	250200
# Disc length: 3552 seconds
# Revision: 1
# Processed by: cddbd v1.5.2PL0 Copyright (c) Steve Scherf et al.
#
# Submitted via: libkcddb 0.31
#
DISCID=b90dde0e
DTITLE=Cindy Stratton - only you
DYEAR=1994
DGENRE=Easy Listening
TTITLE0=All for you
TTITLE1=Fooling around
TTITLE2=Freefalling
TTITLE3=Someone else's child
TTITLE4=Time makes old fools of us
TTITLE5=When will you learn
TTITLE6=Meant to last
TTITLE7=More wars
TTITLE8=Oh Mary
TTITLE9=Miracale man
TTITLE10=Natural selection
TTITLE11=Promises
TTITLE12=Making waves
TTITLE13=Hope
EXTD=http://www.myspace.com/cindystratton
EXTT0=
EXTT1=
EXTT2=
EXTT3=
EXTT4=
EXTT5=
EXTT6=
EXTT7=
EXTT8=
EXTT9=
EXTT10=
EXTT11=
EXTT12=
EXTT13=
PLAYORDER=
